HIERARCHY
ROOT reference
{
  OFFSET 0 0 0
  CHANNELS 6 Xposition Yposition Zposition Zrotation Xrotation Yrotation
  JOINT Hips
  {
    OFFSET 0.955001 88.439 111.567
    CHANNELS 6 Xposition Yposition Zposition Zrotation Xrotation Yrotation
    JOINT Spine
    {
      OFFSET 0 8.22665 0
      CHANNELS 6 Xposition Yposition Zposition Zrotation Xrotation Yrotation
      JOINT Spine1
      {
        OFFSET 0 24.451 0
        CHANNELS 6 Xposition Yposition Zposition Zrotation Xrotation Yrotation
        JOINT Neck
        {
          OFFSET 0 24.3506 2.21369
          CHANNELS 6 Xposition Yposition Zposition Zrotation Xrotation Yrotation
          JOINT Head
          {
            OFFSET 0 14.0455 -2.0065
            CHANNELS 6 Xposition Yposition Zposition Zrotation Xrotation Yrotation
            End Site
            {
              OFFSET 0 25.0812 0
            }
          }
        }
        JOINT LeftShoulder
        {
          OFFSET 4.0594 22.2558 -0.272799
          CHANNELS 6 Xposition Yposition Zposition Zrotation Xrotation Yrotation
          JOINT LeftArm
          {
            OFFSET 12.0298 0 0
            CHANNELS 6 Xposition Yposition Zposition Zrotation Xrotation Yrotation
            JOINT LeftForeArm
            {
              OFFSET 31.2689 0 0
              CHANNELS 6 Xposition Yposition Zposition Zrotation Xrotation Yrotation
              JOINT LeftHand
              {
                OFFSET 28.0275 0 0
                CHANNELS 6 Xposition Yposition Zposition Zrotation Xrotation Yrotation
                End Site
                {
                  OFFSET 15.0487 0 0
                }
              }
            }
          }
        }
        JOINT RightShoulder
        {
          OFFSET -3.96464 22.2558 -0.272799
          CHANNELS 6 Xposition Yposition Zposition Zrotation Xrotation Yrotation
          JOINT RightArm
          {
            OFFSET -12.0298 0 0
            CHANNELS 6 Xposition Yposition Zposition Zrotation Xrotation Yrotation
            JOINT RightForeArm
            {
              OFFSET -31.2689 0 0
              CHANNELS 6 Xposition Yposition Zposition Zrotation Xrotation Yrotation
              JOINT RightHand
              {
                OFFSET -28.0275 0 0
                CHANNELS 6 Xposition Yposition Zposition Zrotation Xrotation Yrotation
                End Site
                {
                  OFFSET -15.0487 0 0
                }
              }
            }
          }
        }
      }
    }
    JOINT LeftUpLeg
    {
      OFFSET 10.0325 0 0
      CHANNELS 6 Xposition Yposition Zposition Zrotation Xrotation Yrotation
      JOINT LeftLeg
      {
        OFFSET 0 -38.4033 0
        CHANNELS 6 Xposition Yposition Zposition Zrotation Xrotation Yrotation
        JOINT LeftFoot
        {
          OFFSET 0 -44.1642 0
          CHANNELS 6 Xposition Yposition Zposition Zrotation Xrotation Yrotation
          JOINT LeftToeBase
          {
            OFFSET 0 -6.52112 15.0487
            CHANNELS 6 Xposition Yposition Zposition Zrotation Xrotation Yrotation
            End Site
            {
              OFFSET 0 0 4.013
            }
          }
        }
      }
    }
    JOINT RightUpLeg
    {
      OFFSET -10.0325 0 0
      CHANNELS 6 Xposition Yposition Zposition Zrotation Xrotation Yrotation
      JOINT RightLeg
      {
        OFFSET 0 -38.4033 0
        CHANNELS 6 Xposition Yposition Zposition Zrotation Xrotation Yrotation
        JOINT RightFoot
        {
          OFFSET 0 -44.1642 0
          CHANNELS 6 Xposition Yposition Zposition Zrotation Xrotation Yrotation
          JOINT RightToeBase
          {
            OFFSET 0 -6.52112 15.0487
            CHANNELS 6 Xposition Yposition Zposition Zrotation Xrotation Yrotation
            End Site
            {
              OFFSET 0 0 4.013
            }
          }
        }
      }
    }
  }
}
MOTION
Frames:	11
Frame Time:	0.004
0 0 0 0 0 -0 -19.1303 86.0618 -198.734 0.889669 -1.43077 4.41192 -5.32907e-015 8.22665 -2.84217e-014 0.184666 -6.17798 0.761555 0 24.451 -2.84217e-014 -1.6877 1.51084 0.774217 0 24.3506 2.21369 8.69871 20.1755 12.2196 0 14.0455 -2.0065 -12.6933 -7.75627 10.4173 4.0594 22.2558 -0.272799 21.59 -0.128967 -6.72064 12.0298 0 0 -19.3757 5.65828 -1.44741 31.2689 0 0 2.33014 -7.92222 4.43923 28.0275 0 0 20.1378 -6.94697 6.05366 -3.96464 22.2558 -0.272799 -17.3481 -2.20435 2.08466 -12.0298 2.84217e-014 -2.84217e-014 10.513 9.42718 8.10081 -31.2689 2.84217e-014 0 0.832551 -3.33342 -3.85939 -28.0275 0 0 -10.7833 -3.28255 -0.268733 10.0325 0 -2.84217e-014 -0.699897 5.70962 -0.368873 1.77636e-015 -38.4033 0 -2.82125 2.87235 -2.58883 1.77636e-015 -44.1642 0 2.54488 -7.52647 15.7793 0 -6.52112 15.0487 -9.93923e-017 0 3.18055e-015 -10.0325 0 -2.84217e-014 -2.46486 0.709709 1.60806 3.55271e-015 -38.4033 2.84217e-014 1.91557 17.2731 -2.38461 0 -44.1642 0 3.17452 -14.7202 -6.37816 7.10543e-015 -6.52112 15.0487 4.96962e-017 0 -0 
0 0 0 0 0 -0 -19.1303 86.0618 -198.729 0.889669 -1.43077 4.41192 -5.32907e-015 8.22665 -2.84217e-014 0.184666 -6.17798 0.761555 3.55271e-015 24.451 0 -1.6877 1.51084 0.774217 0 24.3506 2.21369 8.7013 20.1643 12.2187 0 14.0455 -2.0065 -12.6898 -7.7366 10.4168 4.0594 22.2558 -0.272799 21.59 -0.128967 -6.72064 12.0298 0 0 -19.3757 5.65828 -1.44741 31.2689 2.84217e-014 0 2.33014 -7.92222 4.43923 28.0275 0 0 20.1209 -6.94705 6.04742 -3.96464 22.2558 -0.272799 -17.3549 -2.20435 2.08466 -12.0298 2.84217e-014 0 10.5182 9.42718 8.10081 -31.2689 -2.84217e-014 0 0.823043 -3.33342 -3.85939 -28.0275 0 -2.84217e-014 -10.7425 -3.28256 -0.246621 10.0325 -1.42109e-014 -2.84217e-014 -0.701036 5.70963 -0.357427 1.77636e-015 -38.4033 2.84217e-014 -2.80357 2.86408 -2.62554 8.88178e-016 -44.1642 0 2.53931 -7.50447 15.7834 7.10543e-015 -6.52112 15.0487 4.96962e-017 -9.93923e-017 3.18055e-015 -10.0325 -1.42109e-014 -2.84217e-014 -2.46512 0.713444 1.62107 0 -38.4033 0 1.91777 17.2638 -2.35037 0 -44.1642 0 3.33259 -14.8227 -6.40748 0 -6.52112 15.0487 1.73937e-016 3.97569e-016 -0 
0 0 0 0 0 -0 -19.1303 86.0618 -198.722 0.889669 -1.43077 4.41192 -5.32907e-015 8.22665 -2.84217e-014 0.184666 -6.17798 0.761555 3.55271e-015 24.451 0 -1.68597 1.51084 0.774217 0 24.3506 2.21369 8.70905 20.1723 12.2194 1.42109e-014 14.0455 -2.0065 -12.7049 -7.74554 10.4171 4.0594 22.2558 -0.272799 21.59 -0.128967 -6.72139 12.0298 0 2.84217e-014 -19.3783 5.65828 -1.44741 31.2689 0 0 2.32958 -7.92515 4.43362 28.0275 0 0 20.1455 -6.94882 6.04456 -3.96464 22.2558 -0.272799 -17.3639 -2.20434 2.08595 -12.0298 -2.84217e-014 0 10.5296 9.43637 8.10103 -31.2689 0 0 0.819036 -3.33455 -3.85939 -28.0275 0 -2.84217e-014 -10.7566 -3.28489 -0.235068 10.0325 0 -2.84217e-014 -0.699605 5.70962 -0.37181 1.77636e-015 -38.4033 0 -2.8111 2.85918 -2.62032 0 -44.1642 0 2.55141 -7.5142 15.7974 0 -6.52112 15.0487 -9.93923e-017 9.93923e-017 -0 -10.0325 -1.42109e-014 -2.84217e-014 -2.46545 0.722759 1.62645 0 -38.4033 0 1.92142 17.251 -2.37184 0 -44.1642 0 3.32514 -14.8023 -6.39639 0 -6.52112 15.0487 4.47266e-016 -3.97569e-016 -7.95139e-016 
0 0 0 0 0 -0 -19.1303 86.0618 -198.718 0.889735 -1.43162 4.41192 0 8.22665 -2.84217e-014 0.184648 -6.17664 0.761553 -3.55271e-015 24.451 0 -1.68411 1.51084 0.774217 0 24.3506 2.21369 8.69287 20.1706 12.2192 0 14.0455 -2.0065 -12.6855 -7.73442 10.418 4.0594 22.2558 -0.272799 21.5896 -0.133037 -6.7183 12.0298 2.84217e-014 0 -19.3911 5.65828 -1.44741 31.2689 2.84217e-014 -2.84217e-014 2.32976 -7.93798 4.42779 28.0275 2.84217e-014 0 20.1537 -6.95829 6.06091 -3.96464 22.2558 -0.272799 -17.3728 -2.20435 2.07996 -12.0298 0 0 10.5306 9.41955 8.10063 -31.2689 -2.84217e-014 0 0.887287 -3.22641 -3.85898 -28.0275 -2.84217e-014 -2.84217e-014 -10.9002 -3.17205 -0.257452 10.0325 0 0 -0.699514 5.70962 -0.372729 0 -38.4033 -2.84217e-014 -2.80876 2.85313 -2.59765 8.88178e-016 -44.1642 2.84217e-014 2.56455 -7.5172 15.7872 0 -6.52112 15.0487 -1.49089e-016 -9.93923e-017 -0 -10.0325 0 0 -2.46543 0.72073 1.62882 -3.55271e-015 -38.4033 -2.84217e-014 1.91609 17.2481 -2.36624 0 -44.1642 0 3.38494 -14.8154 -6.3924 0 -6.52112 15.0487 -1.98785e-016 -3.97569e-016 7.95139e-016 
0 0 0 0 0 -0 -19.1303 86.0618 -198.712 0.889727 -1.43152 4.41192 -1.77636e-015 8.22665 0 0.184644 -6.17634 0.761552 0 24.451 0 -1.68218 1.51084 0.774217 3.55271e-015 24.3506 2.21369 8.71128 20.1658 12.2188 0 14.0455 -2.0065 -12.6767 -7.72274 10.4272 4.0594 22.2558 -0.272799 21.5859 -0.147109 -6.71449 12.0298 -2.84217e-014 0 -19.3873 5.66962 -1.44744 31.2689 0 0 2.33027 -7.9551 4.42195 28.0275 0 0 20.2108 -6.96709 6.08762 -3.96464 22.2558 -0.272799 -17.3739 -2.20436 2.07381 -12.0298 0 2.84217e-014 10.5239 9.42369 8.10073 -31.2689 -2.84217e-014 0 0.825325 -3.32526 -3.85936 -28.0275 0 0 -10.7555 -3.27404 -0.249274 10.0325 0 0 -0.698966 5.7099 -0.378214 -1.77636e-015 -38.4033 2.84217e-014 -2.81938 2.84763 -2.59529 8.88178e-016 -44.1642 0 2.5411 -7.51453 15.7886 0 -6.52112 15.0487 2.48481e-017 1.98785e-016 -0 -10.0325 -1.42109e-014 0 -2.46565 0.732623 1.62008 0 -38.4033 0 1.91567 17.2445 -2.37444 7.10543e-015 -44.1642 0 3.34602 -14.8141 -6.36656 0 -6.52112 15.0487 3.47873e-016 0 7.95139e-016 
0 0 0 0 0 -0 -19.1303 86.0618 -198.707 0.889312 -1.42614 4.41191 -1.77636e-015 8.22665 0 0.184717 -6.18175 0.76156 7.10543e-015 24.451 0 -1.68021 1.51084 0.774217 3.55271e-015 24.3506 2.21369 8.71422 20.1555 12.218 0 14.0455 -2.0065 -12.7002 -7.71186 10.4247 4.0594 22.2558 -0.272799 21.6006 -0.147907 -6.71051 12.0298 0 2.84217e-014 -19.3982 5.65182 -1.44739 31.2689 0 2.84217e-014 2.32966 -7.93215 4.43014 28.0275 0 0 20.1642 -6.95202 6.0585 -3.96464 22.2558 -0.272799 -17.3741 -2.20436 2.07407 -12.0298 5.68434e-014 2.84217e-014 10.5236 9.43278 8.09543 -31.2689 2.84217e-014 -2.84217e-014 0.818655 -3.34166 -3.85942 -28.0275 0 0 -10.7588 -3.29058 -0.250787 10.0325 1.42109e-014 0 -0.700009 5.70995 -0.36773 -1.77636e-015 -38.4033 2.84217e-014 -2.81219 2.85382 -2.60532 -8.88178e-016 -44.1642 2.84217e-014 2.56173 -7.53618 15.7917 7.10543e-015 -6.52112 15.0487 -1.49089e-016 9.93923e-017 -3.18055e-015 -10.0325 0 -2.84217e-014 -2.46557 0.734617 1.60962 0 -38.4033 0 1.91856 17.237 -2.37556 -7.10543e-015 -44.1642 2.84217e-014 3.1735 -14.7353 -6.40298 0 -6.52112 15.0487 -4.96962e-017 0 -0 
0 0 0 0 0 -0 -19.1303 86.0618 -198.703 0.888643 -1.41747 4.41189 -1.77636e-015 8.22665 -2.84217e-014 0.184853 -6.19199 0.761575 0 24.451 2.84217e-014 -1.67825 1.51084 0.774217 3.55271e-015 24.3506 2.21369 8.70499 20.1559 12.218 0 14.0455 -2.0065 -12.692 -7.71022 10.4278 4.0594 22.2558 -0.272799 21.5926 -0.146822 -6.70589 12.0298 0 0 -19.3931 5.6501 -1.44739 31.2689 2.84217e-014 0 2.32819 -7.91447 4.43265 28.0275 2.84217e-014 0 20.1103 -6.9423 6.03147 -3.96464 22.2558 -0.272799 -17.374 -2.20437 2.06941 -12.0298 -2.84217e-014 0 10.5233 9.42998 8.10698 -31.2689 -2.84217e-014 0 0.821924 -3.33571 -3.8594 -28.0275 0 0 -10.7416 -3.28487 -0.246586 10.0325 0 -2.84217e-014 -0.699232 5.71049 -0.3755 1.77636e-015 -38.4033 0 -2.81244 2.84139 -2.59069 0 -44.1642 0 2.55267 -7.52725 15.7868 0 -6.52112 15.0487 -0 0 3.18055e-015 -10.0325 -1.42109e-014 0 -2.46934 0.737798 1.61422 3.55271e-015 -38.4033 -2.84217e-014 1.92369 17.2344 -2.35112 7.10543e-015 -44.1642 -2.84217e-014 3.36986 -14.8206 -6.41891 0 -6.52112 15.0487 3.23025e-016 -3.97569e-016 -0 
0 0 0 0 0 -0 -19.1303 86.0618 -198.699 0.888348 -1.41365 4.41188 1.77636e-015 8.22665 0 0.18491 -6.19618 0.761581 0 24.451 2.84217e-014 -1.67635 1.51084 0.774217 0 24.3506 2.21369 8.68961 20.1687 12.2191 0 14.0455 -2.0065 -12.675 -7.74671 10.4327 4.0594 22.2558 -0.272799 21.6046 -0.145024 -6.70418 12.0298 0 -2.84217e-014 -19.4092 5.64087 -1.44736 31.2689 -2.84217e-014 0 2.32585 -7.91833 4.43534 28.0275 -2.84217e-014 -2.84217e-014 20.1406 -6.94211 6.04484 -3.96464 22.2558 -0.272799 -17.3734 -2.20438 2.06161 -12.0298 -2.84217e-014 0 10.5214 9.44039 8.11053 -31.2689 0 2.84217e-014 0.826055 -3.33754 -3.85941 -28.0275 0 0 -10.7471 -3.28734 -0.24099 10.0325 0 0 -0.698054 5.71231 -0.387219 -1.77636e-015 -38.4033 0 -2.80063 2.85174 -2.62115 1.77636e-015 -44.1642 0 2.5302 -7.52551 15.8106 0 -6.52112 15.0487 -1.73937e-016 0 -3.18055e-015 -10.0325 0 0 -2.47349 0.741028 1.6207 0 -38.4033 0 1.92401 17.2287 -2.40139 0 -44.1642 0 3.21202 -14.7367 -6.38695 0 -6.52112 15.0487 -9.93923e-016 -7.95139e-016 -0 
0 0 0 0 0 -0 -19.1303 86.0618 -198.691 0.888241 -1.41226 4.41188 -1.77636e-015 8.22665 -2.84217e-014 0.184956 -6.19963 0.761586 -3.55271e-015 24.451 0 -1.67456 1.51084 0.774217 3.55271e-015 24.3506 2.21369 8.68368 20.1634 12.2186 0 14.0455 -2.0065 -12.6638 -7.72741 10.4341 4.0594 22.2558 -0.272799 21.5959 -0.143683 -6.70241 12.0298 -2.84217e-014 -2.84217e-014 -19.3974 5.63893 -1.44736 31.2689 0 0 2.3097 -7.9242 4.43818 28.0275 0 -2.84217e-014 20.1726 -6.94283 6.06043 -3.96464 22.2558 -0.272799 -17.372 -2.20438 2.0566 -12.0298 -2.84217e-014 2.84217e-014 10.5167 9.42604 8.11397 -31.2689 0 0 0.832484 -3.30461 -3.85928 -28.0275 2.84217e-014 0 -10.7213 -3.25543 -0.22773 10.0325 2.84217e-014 0 -0.696858 5.72322 -0.38051 -1.77636e-015 -38.4033 0 -2.81019 2.83459 -2.61173 0 -44.1642 0 2.5435 -7.51695 15.8046 0 -6.52112 15.0487 -2.48481e-017 1.98785e-016 -3.18055e-015 -10.0325 1.42109e-014 0 -2.47499 0.741475 1.62158 3.55271e-015 -38.4033 0 1.92083 17.2185 -2.3998 0 -44.1642 0 3.32164 -14.7876 -6.37667 0 -6.52112 15.0487 -2.48481e-017 -3.97569e-016 7.95139e-016 
0 0 0 0 0 -0 -19.1303 86.0618 -198.687 0.887236 -1.39924 4.41186 3.55271e-015 8.22665 -2.84217e-014 0.185178 -6.21626 0.76161 -3.55271e-015 24.451 0 -1.67296 1.51479 0.774219 0 24.3506 2.21369 8.67847 20.1768 12.2197 1.42109e-014 14.0455 -2.0065 -12.6772 -7.7417 10.425 4.0594 22.2558 -0.272799 21.5913 -0.143503 -6.70072 12.0298 -2.84217e-014 0 -19.3922 5.6416 -1.44737 31.2689 0 2.84217e-014 2.31307 -7.93988 4.44077 28.0275 0 0 20.1617 -6.95851 6.06539 -3.96464 22.2558 -0.272799 -17.3626 -2.20439 2.05425 -12.0298 -2.84217e-014 0 10.5029 9.41803 8.11339 -31.2689 2.84217e-014 0 0.835031 -3.30711 -3.85929 -28.0275 -2.84217e-014 0 -10.7406 -3.25713 -0.23296 10.0325 -1.42109e-014 0 -0.707121 5.70869 -0.380697 1.77636e-015 -38.4033 0 -2.79884 2.84223 -2.60739 0 -44.1642 0 2.54739 -7.5249 15.8052 0 -6.52112 15.0487 -2.48481e-017 -9.93923e-017 -0 -10.0325 -2.84217e-014 0 -2.47558 0.727064 1.60207 0 -38.4033 2.84217e-014 1.92441 17.2302 -2.35202 -3.55271e-015 -44.1642 0 3.33823 -14.8256 -6.39139 0 -6.52112 15.0487 -2.48481e-016 -3.97569e-016 7.95139e-016 
0 0 0 0 0 -0 -19.1314 86.0618 -198.681 0.887937 -1.40833 4.41187 -1.77636e-015 8.22665 2.84217e-014 0.185123 -6.21212 0.761604 7.10543e-015 24.451 -2.84217e-014 -1.67161 1.52264 0.774221 3.55271e-015 24.3506 2.21369 8.68203 20.1639 12.2187 0 14.0455 -2.0065 -12.6651 -7.73174 10.4269 4.0594 22.2558 -0.272799 21.6129 -0.160081 -6.69925 12.0298 2.84217e-014 0 -19.4203 5.64384 -1.44737 31.2689 0 0 2.31656 -7.91799 4.44215 28.0275 0 -2.84217e-014 20.1349 -6.94239 6.04214 -3.96464 22.2558 -0.272799 -17.3732 -2.20439 2.05235 -12.0298 0 0 10.501 9.43432 8.11279 -31.2689 -2.84217e-014 2.84217e-014 0.828285 -3.30975 -3.8593 -28.0275 -2.84217e-014 -2.84217e-014 -10.7279 -3.26109 -0.221622 10.0325 0 0 -0.69669 5.7245 -0.400809 -1.77636e-015 -38.4033 0 -2.81184 2.83661 -2.60024 0 -44.1642 0 2.55573 -7.5093 15.818 0 -6.52112 15.0487 4.96962e-017 0 3.18055e-015 -10.0325 0 0 -2.47754 0.749958 1.61751 3.55271e-015 -38.4033 -2.84217e-014 1.92009 17.2079 -2.39295 3.55271e-015 -44.1642 -2.84217e-014 3.21514 -14.7225 -6.3935 0 -6.52112 15.0487 -5.96354e-016 -3.97569e-016 -7.95139e-016 
